<svg id="hg" xmlns="http://www.w3.org/2000/svg" viewbox="0,0,400,400">
  <g stroke-width="2" stroke="navy" fill="green">
    <path d="M 87.5,238.97 L 110,200 L 87.5,161.03 L 42.5,161.03 L 20,200 L 42.5,238.97 L 87.5,238.97 z"></path>
    <path d="M 155,122.06 L 177.5,83.09 L 155,44.12 L 110,44.12 L 87.5,83.09 L 110,122.06 L 155,122.06 z"></path>
    <path d="M 155,355.88 L 177.5,316.91 L 155,277.94 L 110,277.94 L 87.5,316.91 L 110,355.88 L 155,355.88 z"></path>
    <path d="M 222.5,238.97 L 245,200 L 222.5,161.03 L 177.5,161.03 L 155,200 L 177.5,238.97 L 222.5,238.97 z" fill="maroon">
      <title>
        origin
      </title>
    </path>
    <path d="M 290,122.06 L 312.5,83.09 L 290,44.12 L 245,44.12 L 222.5,83.09 L 245,122.06 L 290,122.06 z" ></path>
    <path d="M 290,355.88 L 312.5,316.91 L 290,277.94 L 245,277.94 L 222.5,316.91 L 245,355.88 L 290,355.88 z"></path>
    <path d="M 357.5,238.97 L 380,200 L 357.5,161.03 L 312.5,161.03 L 290,200 L 312.5,238.97 L 357.5,238.97 z"></path>
  </g>
  <g fill="lightgrey" text-anchor="middle" alignment-baseline="middle">
    <text x="65" y="200">
      -2,1,1
    </text>
    <text x="335" y="200">
      2,-1,-1
    </text>
    <text x="267.5" y="316.91">
      1,1,-2
    </text>
    <text x="267.5" y="83.09">
      1,-2,1
    </text>
    <text x="200" y="200" fill="white">
      0,0,0
    </text>
    <text x="132.5" y="316.91">
      -1,2,-1
    </text>
    <text x="132.5" y="83.09">
      -1,-1,2
    </text>
  </g>
</svg>
