<svg id="hg" xmlns="http://www.w3.org/2000/svg" viewbox="0,0,300,300">
  <g stroke-width="2" stroke="navy" fill="green">
    <path d="M 100,150 L 125,106.7 L 100,63.4 L 50,63.4 L 25,106.7 L 50,150 L 100,150 z"></path>
    <path d="M 100,236.6 L 125,193.3 L 100,150 L 50,150 L 25,193.3 L 50,236.6 L 100,236.6 z"></path>
    <path d="M 175,106.7 L 200,63.4 L 175,20.1 L 125,20.1 L 100,63.4 L 125,106.7 L 175,106.7 z"></path>
    <path d="M 175,193.3 L 200,150 L 175,106.7 L 125,106.7 L 100,150 L 125,193.3 L 175,193.3 z" fill="maroon"></path>
    <path d="M 175,279.9 L 200,236.6 L 175,193.3 L 125,193.3 L 100,236.6 L 125,279.9 L 175,279.9 z"></path>
    <path d="M 250,150 L 275,106.7 L 250,63.4 L 200,63.4 L 175,106.7 L 200,150 L 250,150 z"></path>
    <path d="M 250,236.6 L 275,193.3 L 250,150 L 200,150 L 175,193.3 L 200,236.6 L 250,236.6 z"></path>
  </g>
  <g fill="lightgrey" text-anchor="middle" alignment-baseline="middle">
    <text x="75" y="106.7">
      -1,0,1
    </text>
    <text x="225" y="193.3">
      1,0,-1
    </text>
    <text x="225" y="106.7">
      1,-1,0
    </text>
    <text x="150" y="236.6">
      0,1,-1
    </text>
    <text x="150" y="150" fill="white">
      0,0,0
    </text>
    <text x="150" y="63.4">
      0,-1,1
    </text>
    <text x="75" y="193.3">
      -1,1,0
    </text>
  </g>
</svg>
